<?xml version="1.0" encoding="utf-8"?>
<!-- Generator: Adobe Illustrator 22.0.1, SVG Export Plug-In . SVG Version: 6.00 Build 0)  -->
<svg version="1.1" id="Layer_1" xmlns="http://www.w3.org/2000/svg" xmlns:xlink="http://www.w3.org/1999/xlink" x="0px" y="0px"
	 viewBox="0 0 960 310" style="enable-background:new 0 0 960 310;" xml:space="preserve">
<style type="text/css">
	.st0{fill:none;stroke:#A7D4E8;stroke-miterlimit:10;}
	.st1{fill:#C1C4C6;}
	.st2{opacity:0.14;}
	.st3{fill:#D1D3D4;}
	.st4{fill:#45555B;}
	.st5{fill:#FFFFFF;}
	.st6{fill:#CCCCCC;}
	.st7{fill:#ED8B00;}
	.st8{fill:#71BE72;}
	.st9{fill:#D85825;}
	.st10{fill:#00A1E0;}
	.st11{fill:#CCD5E2;}
	.st12{fill:#F9B777;}
	.st13{fill:#95AEC5;}
	.st14{fill:#FFFFFF;stroke:#EDEDED;stroke-width:0.34;stroke-miterlimit:10;}
	.st15{fill:#E4F2FB;}
	.st16{fill:none;stroke:#1A82D7;stroke-width:1.38;stroke-miterlimit:10;}
	.st17{fill:#95C8EC;}
	.st18{fill:#81C784;}
	.st19{fill:#9FA3A5;}
	.st20{fill:#0071BC;}
	.st21{fill:#FFFFFF;stroke:#F9B777;stroke-width:0.5;stroke-miterlimit:10;}
	.st22{fill:none;stroke:#FFFFFF;stroke-miterlimit:10;}
	.st23{fill:#D9F1FC;}
	.st24{fill:#E0F4FF;}
	.st25{fill:#FCC9A7;}
	.st26{fill:#0C0C0C;}
	.st27{fill:#F4BE9A;}
	.st28{fill:#2E2A33;}
	.st29{fill:#AFAFAF;}
	.st30{fill:#D1D1D1;}
	.st31{fill:#0C2C40;}
	.st32{fill:none;stroke:#056499;stroke-miterlimit:10;}
</style>
<path class="st0" d="M212.4,38.6c-0.6,3.6,243,113.3,243,113.3L85.6,100.9"/>
<polyline class="st0" points="76.1,226.5 469.2,171 198.7,273.9 "/>
<line class="st0" x1="475.5" y1="171.5" x2="899.6" y2="212.1"/>
<line class="st0" x1="861.9" y1="100.3" x2="469.2" y2="162.6"/>
<line class="st0" x1="716.7" y1="273.9" x2="516.8" y2="178.1"/>
<line class="st0" x1="711.1" y1="35" x2="477.3" y2="151.8"/>
<g>
	<g>
		<g>
			<polygon class="st1" points="505.7,300 447,299.4 452.7,254.4 500.9,255 			"/>
		</g>
		<g class="st2">
			<polygon points="451,266.7 502.1,264.6 503.5,278 			"/>
		</g>
		<g>
			<path class="st3" d="M321.6,45.3v217.4c0,2.3,2,4.2,4.2,4.2h301.4c2.3,0,4.2-2,4.2-4.2V45.3c0-2.1-1.8-3.9-3.9-3.9H325.7
				C323.6,41.3,321.6,43.2,321.6,45.3z"/>
		</g>
		<g>
			<path class="st4" d="M321.6,44.7v194.3h309.9V44.7c0-2-1.7-3.6-3.6-3.6H325.4C323.5,41,321.6,42.7,321.6,44.7z"/>
		</g>
		<g>
			<rect x="329.9" y="50.1" class="st5" width="293.5" height="178.4"/>
		</g>
		<g>
			<rect x="430.1" y="293.8" class="st3" width="92.9" height="16.2"/>
		</g>
	</g>
	<g>
		<g>
			<g>
				<rect x="329.6" y="50.1" class="st3" width="293.5" height="15.2"/>
			</g>
		</g>
		<g>
			<g>
				<rect x="524.1" y="54" class="st5" width="92.1" height="7.5"/>
			</g>
			<g>
				<polygon class="st6" points="608.7,56.8 613.3,56.8 610.9,58.9 				"/>
			</g>
			<g>
				<g>
					<rect x="605.2" y="54.4" class="st6" width="0.5" height="6.2"/>
				</g>
			</g>
		</g>
		<g>
			<circle class="st7" cx="354.3" cy="57.9" r="4.5"/>
		</g>
	</g>
	<g>
		<circle class="st8" cx="367.8" cy="57.9" r="4.5"/>
	</g>
	<circle class="st9" cx="340.7" cy="57.9" r="4.5"/>
	<g>
		<rect x="329.6" y="71" class="st5" width="293.8" height="160.9"/>
		<rect x="329.6" y="49.5" class="st10" width="293.8" height="21.6"/>
		<rect x="329.6" y="96.3" class="st11" width="293.8" height="23.3"/>
		<rect x="342.1" y="103.1" class="st12" width="10.8" height="10.8"/>
		<rect x="359.7" y="103.1" class="st13" width="14.7" height="2.3"/>
		<rect x="357.1" y="125.8" class="st13" width="17" height="2.4"/>
		<rect x="357.1" y="131.4" class="st13" width="17" height="2.4"/>
		<rect x="400.8" y="125.8" class="st13" width="17" height="2.4"/>
		<rect x="400.8" y="131.4" class="st13" width="17" height="2.4"/>
		<rect x="444.6" y="125.8" class="st13" width="17" height="2.4"/>
		<rect x="444.6" y="131.4" class="st13" width="17" height="2.4"/>
		<rect x="488.3" y="125.8" class="st13" width="28.6" height="2.4"/>
		<rect x="488.3" y="131.4" class="st13" width="28.6" height="2.4"/>
		<rect x="359.8" y="108.5" class="st13" width="76" height="5.4"/>
		<rect x="441.3" y="108.5" class="st14" width="14" height="5.4"/>
		<rect x="565.7" y="104.8" class="st14" width="17.1" height="8.1"/>
		<rect x="346.3" y="154.2" class="st13" width="152.5" height="1.7"/>
		<rect x="346.3" y="166.5" class="st13" width="152.5" height="1.7"/>
		<rect x="346.3" y="178.7" class="st13" width="152.5" height="1.7"/>
		<rect x="513.1" y="153.6" class="st15" width="98.4" height="77.8"/>
		<line class="st16" x1="543.6" y1="182.7" x2="577.3" y2="182.7"/>
		<rect x="538.9" y="167.3" class="st13" width="38.9" height="3.8"/>
		<rect x="543.6" y="188.9" class="st13" width="58.2" height="1.7"/>
		<rect x="543.6" y="195.7" class="st13" width="58.2" height="1.7"/>
		<line class="st16" x1="543.6" y1="208.9" x2="577.3" y2="208.9"/>
		<rect x="543.6" y="214.9" class="st13" width="58.2" height="1.7"/>
		<rect x="543.6" y="221.8" class="st13" width="58.2" height="1.7"/>
		<rect x="329.6" y="140.5" class="st13" width="293.8" height="1.7"/>
		<path class="st10" d="M354.1,79.1c-0.6,0-1.2,0.2-1.8,0.5c-0.6-1.2-2-2-3.3-2c-1.1,0-2,0.5-2.7,1.2c-1.4-1.8-3.9-2.4-5.7-1.1
			c-1.7,1.2-2.3,3.3-1.4,5.3c-1.7,0.9-2.4,3.2-1.5,4.8c0.6,1.2,1.8,2,3.2,1.8c0.3,0,0.5,0,0.8,0c0.8,2,2.9,3,4.8,2.3
			c1.1-0.3,1.8-1.2,2.3-2.1c1.7,0.8,3.5,0.2,4.4-1.4c0.3,0,0.6,0.2,0.9,0.2c2.6-0.2,4.5-2.3,4.4-4.8
			C358.3,81.2,356.5,79.2,354.1,79.1L354.1,79.1z"/>
		<path class="st17" d="M523.5,163.8h6.6c0.9,0,1.7,0.8,1.7,1.7v6.6c0,0.9-0.8,1.7-1.7,1.7h-6.6c-0.9,0-1.7-0.8-1.7-1.7v-6.6
			C521.7,164.6,522.4,163.8,523.5,163.8z"/>
		<path class="st17" d="M523.5,182.9h10.4c0.9,0,1.7,0.8,1.7,1.7v10.4c0,0.9-0.8,1.7-1.7,1.7h-10.4c-0.9,0-1.7-0.8-1.7-1.7v-10.4
			C521.7,183.7,522.4,182.9,523.5,182.9z"/>
		<path class="st17" d="M523.5,208.7h10.4c0.9,0,1.7,0.8,1.7,1.7v10.4c0,0.9-0.8,1.7-1.7,1.7h-10.4c-0.9,0-1.7-0.8-1.7-1.7v-10.4
			C521.7,209.5,522.4,208.7,523.5,208.7z"/>
		<path class="st10" d="M365.8,88.5l0.9-1.1c0.5,0.3,0.9,0.6,1.4,0.8c0.5,0.2,1.1,0.3,1.5,0.2c0.6,0,1.2-0.2,1.7-0.5
			c0.5-0.3,0.6-0.9,0.6-1.4s-0.2-0.8-0.3-1.1c-0.3-0.3-0.5-0.5-0.9-0.6c-0.5-0.2-0.9-0.3-1.5-0.5c-0.9-0.2-1.7-0.6-2.3-1.2
			c-0.6-0.5-0.8-1.2-0.8-2c0-0.6,0.2-1.2,0.5-1.7c0.3-0.5,0.9-0.9,1.4-1.1c0.6-0.3,1.4-0.3,2-0.3c1.2,0,2.4,0.3,3.5,1.1l-0.8,1.2
			c-0.5-0.3-0.9-0.5-1.4-0.6c-0.5-0.2-0.9-0.2-1.4-0.2c-0.6,0-1.1,0.2-1.5,0.5c-0.6,0.5-0.8,1.4-0.3,2.1c0.2,0.2,0.2,0.3,0.3,0.3
			c0.6,0.3,1.2,0.6,1.8,0.8c0.9,0.2,1.8,0.6,2.6,1.2c0.6,0.6,0.9,1.4,0.9,2.3c0,0.6-0.2,1.4-0.6,1.8c-0.3,0.6-0.9,0.9-1.5,1.2
			c-0.6,0.3-1.4,0.5-2.1,0.5s-1.4-0.2-2.1-0.3C366.9,89.3,366.3,89,365.8,88.5z"/>
		<path class="st10" d="M374.8,87.2c0-0.9,0.5-1.8,1.2-2.3c1.1-0.5,2.1-0.8,3.3-0.6h0.8v-0.5c0-1.1-0.6-1.5-1.8-1.5
			c-0.9,0-1.7,0.2-2.4,0.6l-0.6-1.1c0.5-0.3,0.9-0.5,1.5-0.6c0.5-0.2,1.1-0.2,1.7-0.2c0.9-0.2,1.8,0.2,2.6,0.8
			c0.6,0.8,0.9,1.5,0.8,2.4v3.2c0,0.6,0,1.2,0.2,1.8h-1.5c0-0.3-0.2-0.6-0.2-0.9l0,0c-0.3,0.5-0.6,0.8-1.1,0.9
			c-0.5,0.2-1.1,0.3-1.7,0.3c-0.8,0-1.4-0.2-2-0.6C375.1,88.5,374.8,87.9,374.8,87.2z M380.1,86.4v-0.9h-0.6c-0.8,0-1.5,0-2.3,0.3
			c-0.5,0.3-0.8,0.8-0.6,1.2c0,0.3,0.2,0.8,0.3,0.9c0.3,0.3,0.6,0.3,1.1,0.3c0.5,0,0.8-0.2,1.2-0.3c0.3-0.2,0.6-0.5,0.8-0.8
			C380.1,87,380.1,86.7,380.1,86.4L380.1,86.4z"/>
		<path class="st10" d="M384.3,78.3h1.7v11.1h-1.7V78.3z"/>
		<path class="st10" d="M395.4,86.1h-5.9c0,0.6,0.3,1.2,0.8,1.7c0.5,0.5,1.1,0.6,1.7,0.6c0.5,0,0.9,0,1.2-0.2
			c0.5-0.2,0.8-0.3,1.2-0.6l0.8,1.1c-0.5,0.3-0.9,0.6-1.5,0.8s-1.2,0.3-1.8,0.3c-0.8,0-1.5-0.2-2.1-0.6c-0.6-0.3-1.1-0.9-1.4-1.5
			c-0.3-0.8-0.5-1.5-0.5-2.3c0-1.1,0.3-2.3,1.1-3c0.8-0.8,1.8-1.2,2.9-1.2c1.1,0,2.1,0.5,2.7,1.2c0.6,0.9,1.1,2,0.9,3
			C395.4,85.7,395.4,85.8,395.4,86.1z M393.8,84.8c0-0.6-0.2-1.2-0.6-1.7c-0.3-0.5-0.9-0.8-1.5-0.6c-0.6,0-1.2,0.2-1.5,0.6
			c-0.5,0.5-0.6,1.1-0.6,1.7H393.8z"/>
		<path class="st10" d="M402.5,82.1l-0.8,1.1c-0.6-0.5-1.2-0.6-2-0.6c-0.3,0-0.8,0-1.1,0.3c-0.3,0.2-0.5,0.5-0.5,0.8
			c0,0.2,0,0.5,0.2,0.6c0.2,0.2,0.3,0.3,0.6,0.5c0.5,0.2,0.8,0.3,1.2,0.3c0.6,0.2,1.4,0.5,1.8,0.9c0.5,0.5,0.6,0.9,0.6,1.5
			c0,0.5-0.2,1.1-0.5,1.4c-0.3,0.5-0.8,0.8-1.2,0.9c-0.5,0.2-1.1,0.3-1.7,0.3c-1.1,0-2.1-0.3-2.9-0.9l0.8-1.1
			c0.3,0.2,0.6,0.5,1.1,0.5c0.3,0.2,0.8,0.2,1.1,0.2c0.5,0,0.9,0,1.2-0.3c0.3-0.2,0.5-0.6,0.5-0.9c0-0.2,0-0.5-0.2-0.6
			c-0.2-0.2-0.3-0.3-0.6-0.3c-0.5-0.2-0.8-0.3-1.2-0.3c-0.6-0.2-1.2-0.5-1.8-0.9c-0.5-0.5-0.6-1.1-0.6-1.5c0-0.6,0.3-1.4,0.9-1.7
			c0.6-0.5,1.4-0.6,2.3-0.6C400.8,81.2,401.7,81.5,402.5,82.1z"/>
		<path class="st10" d="M409.1,78.3l-0.3,1.2c-0.3-0.2-0.6-0.2-1.1-0.2c-0.9,0-1.4,0.6-1.4,1.5v0.5h2v1.2h-2v6.8h-1.7v-6.8h-1.4
			v-1.1l1.4-0.2v-0.6c0-0.8,0.2-1.5,0.8-2c0.6-0.5,1.4-0.8,2.1-0.8C408.2,78.2,408.7,78.3,409.1,78.3z"/>
		<path class="st10" d="M417.5,85.4c0,0.8-0.2,1.5-0.5,2.3c-0.3,0.6-0.8,1.2-1.4,1.5c-0.8,0.5-1.5,0.6-2.3,0.6s-1.5-0.2-2.3-0.6
			c-0.6-0.3-1.1-0.9-1.4-1.5c-0.6-1.4-0.6-3,0-4.4c0.3-0.6,0.8-1.2,1.4-1.5c0.8-0.3,1.5-0.6,2.3-0.5c0.8,0,1.5,0.2,2.3,0.5
			c0.6,0.3,1.1,0.9,1.4,1.5S417.5,84.6,417.5,85.4z M411.1,85.4c0,0.8,0.2,1.5,0.6,2.1s1.1,0.9,1.8,0.8c0.8,0,1.4-0.3,1.8-0.8
			c0.5-0.6,0.6-1.4,0.6-2.1c0-0.8-0.2-1.5-0.6-2.1c-0.5-0.6-1.2-0.9-1.8-0.8c-0.8,0-1.4,0.3-1.8,0.8
			C411.2,83.9,411.1,84.6,411.1,85.4z"/>
		<path class="st10" d="M419.5,83.3c0-0.6,0-1.2-0.2-1.8h1.5c0,0.3,0.2,0.8,0.2,1.1l0,0c0.2-0.5,0.6-0.8,0.9-1.1
			c0.5-0.3,1.1-0.3,1.5-0.3h0.5l-0.2,1.4c-0.2,0-0.3,0-0.6,0c-0.6,0-1.2,0.3-1.7,0.8s-0.6,1.2-0.6,1.8v4.2h-1.7v-6H419.5z"/>
		<path class="st10" d="M428.8,81.2c0.5,0,1.1,0.2,1.5,0.2c0.5,0.2,0.9,0.3,1.2,0.6l-0.6,1.2c-0.6-0.5-1.4-0.6-2.1-0.6
			c-0.8,0-1.4,0.3-1.8,0.8c-0.5,0.6-0.6,1.4-0.6,2.1c0,0.8,0.2,1.5,0.6,2.1c0.5,0.6,1.1,0.9,1.8,0.8c0.8,0,1.5-0.3,2.1-0.6l0.6,1.2
			c-0.8,0.6-1.8,0.9-2.9,0.9c-0.8,0-1.7-0.2-2.3-0.6c-0.6-0.5-1.1-0.9-1.2-1.7c-0.3-0.6-0.3-1.4-0.3-2c0-0.8,0.2-1.5,0.5-2.3
			c0.3-0.6,0.8-1.2,1.4-1.5C427.3,81.3,428,81.2,428.8,81.2z"/>
		<path class="st10" d="M439.9,86.1H434c0,0.6,0.3,1.2,0.8,1.7c0.5,0.5,1.1,0.6,1.7,0.6c0.5,0,0.9,0,1.2-0.2
			c0.5-0.2,0.8-0.3,1.2-0.6l0.8,1.1c-0.5,0.3-0.9,0.6-1.5,0.8c-0.6,0.2-1.2,0.3-1.8,0.3c-0.8,0-1.5-0.2-2.1-0.6
			c-0.6-0.3-1.1-0.9-1.4-1.5c-0.3-0.8-0.5-1.5-0.5-2.3c0-1.1,0.3-2.3,1.1-3c0.8-0.8,1.8-1.2,2.9-1.2c1.1,0,2.1,0.5,2.7,1.2
			c0.6,0.9,1.1,2,0.9,3C439.9,85.7,439.9,85.8,439.9,86.1z M438.3,84.8c0-0.6-0.2-1.2-0.6-1.7c-0.3-0.5-0.9-0.8-1.5-0.6
			c-0.6,0-1.2,0.2-1.5,0.6c-0.5,0.5-0.6,1.1-0.6,1.7H438.3z"/>
		<rect x="346.3" y="192.1" class="st18" width="29.6" height="29.6"/>
		<rect x="387.3" y="192.1" class="st12" width="29.6" height="29.6"/>
		<rect x="428.2" y="192.1" class="st17" width="29.6" height="29.6"/>
		<rect x="469.2" y="192.1" class="st11" width="29.6" height="29.6"/>
	</g>
	<circle class="st19" cx="477.3" cy="252.9" r="5.4"/>
</g>
<circle class="st20" cx="860.2" cy="100.6" r="47.2"/>
<circle class="st18" cx="85.1" cy="104.2" r="43.1"/>
<circle class="st12" cx="716.9" cy="271.5" r="37.4"/>
<ellipse transform="matrix(0.1602 -0.9871 0.9871 0.1602 -104.7662 424.7357)" class="st13" cx="197.2" cy="273.9" rx="34.6" ry="34.6"/>
<circle class="st12" cx="213.9" cy="38.5" r="37.6"/>
<circle class="st10" cx="711.1" cy="34" r="33.1"/>
<circle class="st18" cx="894.9" cy="213" r="37.6"/>
<circle class="st20" cx="678" cy="212.1" r="11.3"/>
<circle class="st20" cx="251.5" cy="99.2" r="13.7"/>
<circle class="st20" cx="476.3" cy="13.2" r="7.2"/>
<circle class="st10" cx="816" cy="215.7" r="9.5"/>
<circle class="st12" cx="253.7" cy="228.3" r="8.6"/>
<g>
	<g>
		<rect x="212.4" y="28.3" class="st5" width="16.8" height="2.1"/>
	</g>
	<g>
		<rect x="212.4" y="33.4" class="st5" width="16.8" height="2.1"/>
	</g>
	<g>
		<rect x="212.4" y="38.6" class="st5" width="16.8" height="2.1"/>
	</g>
	<g>
		<rect x="198.7" y="43.8" class="st5" width="30.5" height="2.1"/>
	</g>
	<path class="st5" d="M234.9,21.1H193c-1.1,0-1.8,0.9-1.8,1.8v28.4c0,1.1,0.9,1.8,1.8,1.8h41.9c1.1,0,1.8-0.9,1.8-1.8V22.9
		C236.7,21.8,235.8,21.1,234.9,21.1z M233.1,49.5h-38.5V24.7h38.5V49.5L233.1,49.5z"/>
	<g>
		<path class="st5" d="M212.9,53.1c-1.7,0-4.2,0.9-5.4,2.3l-0.8,0.8c-1.4,1.2-0.9,2.3,0.9,2.3h12.8c1.7,0,2.1-0.9,0.9-2.3l-0.8-0.8
			c-1.4-1.2-3.8-2.3-5.4-2.3H212.9z"/>
	</g>
	<path class="st5" d="M198.7,28.3v11.9h10.7V28.3H198.7z M204,29.9c1.2,0,2.1,0.9,2.1,2.1c0,1.2-0.9,2.1-2.1,2.1
		c-1.2,0-2.1-0.9-2.1-2.1C201.9,30.8,202.8,29.9,204,29.9z M207.6,38.8h-7.2v-0.2c0-2,1.7-3.6,3.6-3.6s3.6,1.7,3.6,3.6V38.8z"/>
</g>
<g>
	<path class="st5" d="M861.1,82.7h-25.8c-2,0-3.6,1.7-3.6,3.6v38.2c0,2,1.7,3.6,3.6,3.6h25.8c2,0,3.6-1.7,3.6-3.6V86.3
		C864.7,84.3,863.1,82.7,861.1,82.7z M842.9,123.4h-6.5v-6.5h6.5V123.4z M842.9,115h-6.5v-5.9h6.5V115z M842.9,107.3h-6.5v-6.5h6.5
		V107.3z M851.6,123.4h-6.9v-6.5h6.9V123.4z M851.6,115h-6.9v-5.9h6.9V115z M851.6,107.3h-6.9v-6.5h6.9V107.3z M860.1,123.4h-6.5
		v-6.5h6.5V123.4z M860.1,115h-6.5v-5.9h6.5V115z M860.1,107.3h-6.5v-6.5h6.5V107.3z M861,95.9h-25.4v-9.3H861V95.9z"/>
	<g>
		<rect x="854.2" y="75.6" class="st20" width="32" height="38.5"/>
		<g>
			<g>
				<path class="st5" d="M856,115.9c-2.4,0-4.5-2-4.5-4.5V77.9c0-2.4,2-4.5,4.5-4.5h27.5c2.4,0,4.5,2,4.5,4.5v33.7
					c0,2.4-2,4.5-4.5,4.5H856V115.9z M856,77.3c-0.3,0-0.5,0.3-0.5,0.5v33.4c0,0.3,0.3,0.5,0.5,0.5h27.5c0.3,0,0.5-0.3,0.5-0.5V77.9
					c0-0.3-0.3-0.5-0.5-0.5H856V77.3z"/>
				<path class="st20" d="M883.5,74.1c2.1,0,3.8,1.7,3.8,3.8v33.7c0,2.1-1.7,3.8-3.8,3.8H856c-2.1,0-3.8-1.7-3.8-3.8V77.9
					c0-2.1,1.7-3.8,3.8-3.8H883.5 M856,112.4h27.5c0.8,0,1.2-0.6,1.2-1.2V77.9c0-0.8-0.6-1.2-1.2-1.2H856c-0.8,0-1.2,0.6-1.2,1.2
					v33.4C854.8,111.8,855.4,112.4,856,112.4 M883.5,72.6H856c-2.9,0-5.3,2.4-5.3,5.3v33.7c0,2.9,2.4,5.3,5.3,5.3h27.5
					c2.9,0,5.3-2.4,5.3-5.3V77.9C888.8,75,886.4,72.6,883.5,72.6L883.5,72.6z M856.3,78h27v32.8h-27V78L856.3,78z"/>
			</g>
			<path class="st5" d="M856.6,78.5v32.3H883V78.5H856.6z M868.5,96.8l-4.2,8.7c-0.2,0.3-0.5,0.5-0.8,0.5l0,0
				c-0.3,0-0.6-0.2-0.8-0.5l-2.4-4.4c-0.3-0.5-0.2-1.1,0.3-1.2c0.5-0.3,1.1-0.2,1.2,0.3l1.7,2.9l3.5-7.2c0.2-0.5,0.8-0.6,1.2-0.5
				C868.5,95.7,868.6,96.3,868.5,96.8z M868.5,85.2l-4.2,8.7c-0.2,0.3-0.5,0.5-0.8,0.5l0,0c-0.3,0-0.6-0.2-0.8-0.5l-2.4-4.4
				c-0.3-0.5-0.2-1.1,0.3-1.2c0.5-0.3,1.1-0.2,1.2,0.3l1.7,2.9l3.5-7.2c0.2-0.5,0.8-0.6,1.2-0.5C868.5,84.3,868.6,84.8,868.5,85.2z
				 M879,104h-8c-0.5,0-0.9-0.5-0.9-0.9c0-0.5,0.5-0.9,0.9-0.9h8c0.5,0,0.9,0.5,0.9,0.9C879.9,103.6,879.4,104,879,104z M879,100.1
				h-8c-0.5,0-0.9-0.5-0.9-0.9s0.5-0.9,0.9-0.9h8c0.5,0,0.9,0.5,0.9,0.9S879.4,100.1,879,100.1z M879,92.4h-8
				c-0.5,0-0.9-0.5-0.9-0.9c0-0.5,0.5-0.9,0.9-0.9h8c0.5,0,0.9,0.5,0.9,0.9C879.9,92,879.4,92.4,879,92.4z M879,88.5h-8
				c-0.5,0-0.9-0.5-0.9-0.9s0.5-0.9,0.9-0.9h8c0.5,0,0.9,0.5,0.9,0.9S879.4,88.5,879,88.5z"/>
			<g>
				<path class="st5" d="M865.8,80.7c-2,0-3.6-1.4-3.6-2.9v-4.5c0-1.5,1.7-2.9,3.6-2.9h9.5c2,0,3.5,1.4,3.5,2.9v4.5
					c0,1.5-1.7,2.9-3.6,2.9H865.8z M865.8,73.4c-0.2,0-0.2,0-0.2,0v4.4l0,0c0,0,0,0,0.2,0h9.5c0.2,0,0.2,0,0.2,0v-4.4l0,0
					c0,0,0,0-0.2,0H865.8z"/>
				<path class="st20" d="M875.2,71.3c1.5,0,2.7,0.9,2.7,2.1v4.5c0,1.2-1.2,2.1-2.9,2.1h-9.5c-1.5,0-2.9-0.9-2.9-2.1v-4.5
					c0-1.2,1.2-2.1,2.9-2.1H875.2 M865.8,78.5h9.5c0.5,0,0.9-0.3,0.9-0.6v-4.5c0-0.3-0.5-0.6-0.9-0.6h-9.5c-0.5,0-0.9,0.3-0.9,0.6
					v4.5C864.9,78.2,865.3,78.5,865.8,78.5 M875.2,69.7h-9.5c-2.4,0-4.4,1.7-4.4,3.6v4.5c0,2,2,3.6,4.4,3.6h9.5
					c2.4,0,4.4-1.7,4.4-3.6v-4.5C879.4,71.3,877.6,69.7,875.2,69.7L875.2,69.7z M866.4,74.1h8.3V77h-8.3V74.1L866.4,74.1z"/>
			</g>
		</g>
	</g>
</g>
<g>
	<path class="st21" d="M739.5,284.3c0,1.1-0.3,2-0.8,2.7l-14.4-16.1l14.3-12.5c0.6,0.9,0.9,2,0.9,3V284.3L739.5,284.3z M716.7,273.9
		l19.8-17.3c-0.8-0.5-1.7-0.8-2.7-0.8h-34.1c-1.1,0-2,0.3-2.7,0.8L716.7,273.9z M722.3,272.9l-4.5,4.1c-0.3,0.3-0.6,0.3-0.9,0.3
		c-0.3,0-0.6-0.2-0.9-0.3l-4.5-4.1l-14.6,16.2c0.9,0.6,2,0.9,3,0.9H734c1.1,0,2.1-0.3,3-0.9L722.3,272.9z M694.9,258.6
		c-0.6,0.9-0.9,2-0.9,3v22.7c0,1.1,0.3,2,0.8,2.7l14.4-16.1L694.9,258.6z"/>
</g>
<g>
	<g>
		<g>
			<path class="st5" d="M107.1,100.5L85.6,79c-1.2-1.2-3.3-1.2-4.5,0c-1.2,1.2-1.2,3.3,0,4.5l21.5,21.5c1.2,1.2,3.3,1.2,4.5,0
				C108.4,103.8,108.4,101.7,107.1,100.5z"/>
		</g>
	</g>
	<g>
		<g>
			<path class="st5" d="M79.4,86.5l-0.2,0.8c-1.2,5.7-3.9,11.1-7.7,15.5l11.7,11.7c4.4-3.8,9.8-6.6,15.5-7.8l0.8-0.2L79.4,86.5z"/>
		</g>
	</g>
	<g>
		<g>
			<path class="st5" d="M69.3,105.3l-8,8c-2,2-2,5,0,6.9l4.5,4.5c2,2,5,2,6.9,0l8-8L69.3,105.3z M70.5,117.9c-0.6,0.6-1.7,0.6-2.3,0
				c-0.6-0.6-0.6-1.7,0-2.3l2.3-2.3c0.6-0.6,1.7-0.6,2.3,0c0.6,0.6,0.6,1.7,0,2.3L70.5,117.9z"/>
		</g>
	</g>
	<g>
		<g>
			<path class="st5" d="M87.5,125.6l2.3-2.3c2-2,2-5,0-6.9l-1.7-1.5c-0.9,0.6-1.8,1.2-2.6,2l2,2c0.6,0.6,0.6,1.7,0,2.3l-2.3,2.3
				l-3.3-3.2l-4.5,4.5l7.4,7.1c1.2,1.2,3.3,1.2,4.5,0s1.2-3.3,0-4.5L87.5,125.6z"/>
		</g>
	</g>
	<g>
		<g>
			<path class="st5" d="M94.1,77.5c-0.9,0-1.7,0.8-1.7,1.7v3.3c0,0.9,0.8,1.7,1.7,1.7c0.9,0,1.7-0.8,1.7-1.7v-3.3
				C95.8,78.2,95,77.5,94.1,77.5z"/>
		</g>
	</g>
	<g>
		<g>
			<path class="st5" d="M107.1,90.6h-3.3c-0.9,0-1.7,0.8-1.7,1.7s0.8,1.7,1.7,1.7h3.3c0.9,0,1.7-0.8,1.7-1.7
				C108.7,91.2,108,90.6,107.1,90.6z"/>
		</g>
	</g>
	<g>
		<g>
			<path class="st5" d="M105,81.2c-0.6-0.6-1.7-0.6-2.3,0l-3.3,3.3c-0.6,0.6-0.6,1.7,0,2.3c0.6,0.6,1.7,0.6,2.3,0l3.3-3.3
				C105.6,82.9,105.6,81.8,105,81.2z"/>
		</g>
	</g>
</g>
<g>
	<circle class="st10" cx="76.1" cy="225.1" r="38.3"/>
	<path class="st5" d="M72.1,203.8H55.5c-1.7,0-3,1.4-3,3v16.5c0,1.7,1.4,3,3,3h8.1v-8.1h-2.1c-0.3,0-0.5-0.2-0.5-0.5v-2.6
		c0-0.3,0.2-0.5,0.5-0.5h2.1v-2.6c0-2.9,1.8-4.5,4.4-4.5h2.1c0.3,0,0.5,0.2,0.5,0.5v2.3c0,0.3-0.2,0.5-0.5,0.5h-1.4
		c-1.4,0-1.7,0.6-1.7,1.7v2.1h3.2c0.3,0,0.5,0.3,0.5,0.6l-0.3,2.6c0,0.3-0.3,0.5-0.5,0.5h-2.9v8.1h4.8c1.7,0,3-1.4,3-3v-16.5
		C75.1,205.1,73.7,203.8,72.1,203.8z"/>
	<path class="st5" d="M92.6,234.6c-0.6,0.3-1.1,0.5-1.7,0.6c0.6-0.6,1.1-1.4,1.4-2.1l0,0c0.2-0.3-0.2-0.5-0.5-0.3l0,0
		c-0.8,0.5-1.7,0.8-2.6,1.1h-0.2c-0.2,0-0.3,0-0.5-0.2c-0.9-0.9-2.1-1.4-3.5-1.4c-0.6,0-1.1,0.2-1.7,0.3c-1.7,0.5-3,2-3.3,3.6
		c-0.2,0.6-0.2,1.2-0.2,2v0.2H80l0,0c-3.6-0.3-6.9-2.1-9.3-5l0,0c-0.2-0.2-0.3-0.2-0.5,0l0,0c-0.5,0.8-0.8,1.7-0.8,2.6
		c0,1.4,0.6,2.7,1.5,3.6c-0.5-0.2-0.8-0.3-1.2-0.5l0,0c-0.2-0.2-0.5,0-0.5,0.3l0,0c0,2.1,1.2,3.9,3,4.8c0,0,0,0-0.2,0
		c-0.3,0-0.6,0-0.9-0.2l0,0c-0.2,0-0.3,0.2-0.3,0.3l0,0c0.6,1.8,2.3,3.2,4.1,3.5c-1.7,1.1-3.5,1.7-5.3,1.7h-0.6
		c-0.2,0-0.3,0.2-0.5,0.3c0,0.2,0,0.3,0.2,0.5c2.1,1.2,4.7,2,7.1,2c2.3,0,4.2-0.5,6-1.4c1.7-0.8,3.2-2,4.5-3.3
		c1.2-1.4,2.1-2.9,2.7-4.5c0.6-1.7,0.9-3.3,0.9-5v-0.2c0-0.3,0.2-0.5,0.3-0.8c0.8-0.6,1.5-1.4,2.1-2.3l0,0
		C93.1,234.7,92.8,234.4,92.6,234.6L92.6,234.6z"/>
	<g>
		<g>
			<g>
				<path class="st5" d="M94.3,207.1h-8c-3.6,0-6.6,3-6.6,6.6v8c0,3.6,3,6.6,6.6,6.6h8c3.6,0,6.6-3,6.6-6.6v-8
					C101.1,210.1,98,207.1,94.3,207.1z M99,221.8c0,2.6-2.1,4.7-4.7,4.7h-8c-2.6,0-4.7-2.1-4.7-4.7v-8c0-2.6,2.1-4.7,4.7-4.7h8
					c2.6,0,4.7,2.1,4.7,4.7V221.8z"/>
			</g>
		</g>
		<g>
			<g>
				<path class="st5" d="M90.4,212.5c-3,0-5.3,2.4-5.3,5.3c0,3,2.4,5.3,5.3,5.3s5.3-2.4,5.3-5.3C95.6,214.8,93.2,212.5,90.4,212.5z
					 M90.4,221.1c-1.8,0-3.3-1.5-3.3-3.3c0-1.8,1.5-3.3,3.3-3.3c1.8,0,3.3,1.5,3.3,3.3C93.7,219.6,92.2,221.1,90.4,221.1z"/>
			</g>
		</g>
		<g>
			<g>
				<circle class="st5" cx="96.1" cy="212.1" r="0.8"/>
			</g>
		</g>
	</g>
</g>
<g>
	<path class="st5" d="M204.9,265.4c0,0,0,0,0-1.1c0-4.2-3.5-7.8-7.8-7.8l0,0c-4.2,0-7.8,3.5-7.8,7.8v1.1
		C189.4,265.4,196.2,270.3,204.9,265.4z"/>
	<path class="st5" d="M201.3,251.7c0,2.3-1.8,4.2-4.2,4.2c-2.3,0-4.2-1.8-4.2-4.2c0-2.4,1.8-4.2,4.2-4.2S201.3,249.3,201.3,251.7
		L201.3,251.7z"/>
</g>
<g>
	<path class="st5" d="M188.5,290.5c0,0,0,0,0-1.1c0-4.2-3.5-7.8-7.8-7.8l0,0c-4.2,0-7.8,3.5-7.8,7.8v1.1
		C172.9,290.5,179.8,295.4,188.5,290.5z"/>
	<path class="st5" d="M184.9,276.8c0,2.3-1.8,4.2-4.2,4.2s-4.2-1.8-4.2-4.2c0-2.3,1.8-4.2,4.2-4.2
		C183.1,272.4,184.9,274.4,184.9,276.8L184.9,276.8z"/>
</g>
<g>
	<path class="st5" d="M221.7,290.5c0,0,0,0,0-1.1c0-4.2-3.5-7.8-7.8-7.8l0,0c-4.2,0-7.8,3.5-7.8,7.8v1.1
		C206.2,290.5,213,295.4,221.7,290.5z"/>
	<path class="st5" d="M218.1,276.8c0,2.3-1.8,4.2-4.2,4.2c-2.3,0-4.2-1.8-4.2-4.2s1.8-4.2,4.2-4.2S218.1,274.4,218.1,276.8
		L218.1,276.8z"/>
</g>
<path class="st22" d="M205.9,292.9c-2.7,1.2-5.6,2-8.7,2c-3.2,0-6-0.8-8.7-2"/>
<path class="st22" d="M203.4,254.1c8.1,2.6,14,9.8,14.6,18.5"/>
<path class="st22" d="M176.5,272.6c0.6-8.7,6.6-15.9,14.6-18.5"/>
<g>
	<g>
		<g>
			<g>
				<path class="st5" d="M692,48.3c-1.5,1.5-1.5,3.9,0,5.3c0.8,0.8,1.7,1.1,2.7,1.1c1.1,0,2-0.5,2.7-1.1l12.3-12.3l-5.3-5.3
					L692,48.3z"/>
				<polygon class="st5" points="722.9,25.3 728.3,22.4 731.2,17 728.6,14.3 723.1,17.3 720.2,22.6 713.8,29.2 716.5,31.9 				"/>
				<path class="st5" d="M724.1,39.5h-0.6c-0.9,0-1.8,0.2-2.7,0.6l-15.5-15.5c0.3-0.9,0.6-1.7,0.6-2.7v-0.6
					c-0.3-3.9-3.5-7.1-7.5-7.1c-1.1,0-2.3,0.3-3.2,0.8l5,5c0.3,0.3,0.5,0.6,0.6,0.9c0.3,0.9,0.2,2-0.6,2.7c-0.6,0.6-1.1,0.8-1.8,0.8
					c-0.3,0-0.6,0-0.9-0.2c-0.3-0.2-0.8-0.3-0.9-0.6l-5-5c-0.5,0.9-0.8,2.1-0.8,3.2c0,4.1,3,7.2,7.1,7.5h0.6c0.9,0,1.8-0.2,2.7-0.6
					l15.5,15.5c-0.3,0.9-0.5,1.7-0.5,2.7v0.6c0.3,3.9,3.5,7.1,7.5,7.1c1.1,0,2.3-0.3,3.2-0.8l-5-5c-0.3-0.3-0.5-0.6-0.6-0.9
					c-0.3-0.9-0.2-2,0.6-2.7c0.5-0.6,1.1-0.8,1.8-0.8c0.3,0,0.6,0,0.9,0.2c0.3,0.2,0.8,0.3,0.9,0.6l5,5c0.5-0.9,0.8-2.1,0.8-3.2
					C731.2,43,728,39.8,724.1,39.5z"/>
			</g>
		</g>
	</g>
</g>
<g>
	<path class="st5" d="M918.2,200.5c-0.3-0.5-0.8-0.6-1.2-0.6h-34.1h-0.2l-1.4-4.1c-0.2-0.5-0.5-0.8-0.9-0.9l-7.1-2.7
		c-0.8-0.3-1.7,0.2-2,0.9c-0.3,0.8,0.2,1.7,0.9,2l6.5,2.6l7.8,22.7c-0.3,0.2-0.6,0.5-0.8,0.8l-2.3,6.3c-0.2,0.5-0.2,0.8,0.2,1.2
		c0.3,0.3,0.6,0.6,1.1,0.6h1.2c-0.8,0.8-1.2,1.8-1.2,3c0,2.6,2.1,4.5,4.5,4.5s4.5-2.1,4.5-4.5c0-1.2-0.5-2.3-1.2-3h9.9
		c-0.8,0.8-1.2,1.8-1.2,3c0,2.6,2.1,4.5,4.5,4.5c2.6,0,4.5-2.1,4.5-4.5c0-1.2-0.5-2.3-1.2-3h1.4c0.8,0,1.2-0.6,1.2-1.2
		c0-0.6-0.6-1.2-1.2-1.2h-24.2l1.4-3.9c0.2,0.2,0.5,0.2,0.6,0.2h22.2c0.6,0,1.2-0.5,1.5-1.1l6.3-19.7
		C918.7,201.4,918.5,200.9,918.2,200.5z M889.2,234c-1.1,0-2-0.9-2-2s0.9-2,2-2c1.1,0,2,0.9,2,2C891.3,233.1,890.4,234,889.2,234z
		 M905.9,234c-1.1,0-2-0.9-2-2s0.9-2,2-2s2,0.9,2,2C908,233.1,907.1,234,905.9,234z M913.9,206.3h-7.7v-3.5h8.9L913.9,206.3z
		 M911.6,213.3H906v-3.9h6.8L911.6,213.3z M896.1,213.3v-3.9h6.9v3.9H896.1z M903.2,216.3v3.3h-6.9v-3.3H903.2z M886.1,209.3h7.1
		v3.9h-5.7L886.1,209.3z M896.1,206.3v-3.5h6.9v3.5H896.1z M893.1,202.9v3.5H885l-1.2-3.5H893.1z M888.5,216.3h4.7v3.3h-3.5
		L888.5,216.3z M906.2,219.6v-3.3h4.5l-1.1,3.3H906.2z"/>
</g>
<path class="st23" d="M758.3,148.7l-0.9,3c0,0-6.2,3.5-6,3.8l0.9,5.3c0,0.3,7.1,2,7.1,2l1.5,2.7c0,0-1.8,6.6-1.5,7.1l4.2,3.2
	c0.3,0.3,6.2-3.6,6.2-3.6l3,0.9c0,0,3.6,6.2,3.8,6.2l5.3-0.8c0.3,0,1.8-6.8,1.8-6.8l2.7-1.5c0,0,6.8,2,7.2,1.7l3.2-4.2
	c0.3-0.3-3.8-6.2-3.8-6.2l0.9-3c0,0,6.2-3.5,6-3.8l-0.9-5.3c0-0.3-7.1-2-7.1-2l-1.5-2.7c0,0,1.8-6.6,1.5-7.1l-4.2-3.2
	c-0.3-0.3-6.2,3.6-6.2,3.6l-3-0.9c0,0-3.6-6.2-3.8-6.2l-5.3,0.8c-0.3,0-1.8,6.8-1.8,6.8l-2.7,1.5c0,0-6.8-2-7.2-1.7l-3.2,4.1
	C754.3,142.7,758.3,148.7,758.3,148.7z M769.3,150.2c2.6-3.3,7.4-3.9,10.8-1.4c3.5,2.6,4.1,7.4,1.5,10.8c-2.6,3.3-7.4,3.9-10.8,1.4
	C767.5,158.5,766.9,153.7,769.3,150.2z"/>
<path class="st24" d="M165.7,163.6l-0.8,2.6c0,0-5.4,3-5.3,3.2l0.8,4.5c0,0.3,6.2,1.8,6.2,1.8l1.2,2.6c0,0-1.5,5.9-1.4,6.2l3.6,2.9
	c0.2,0.2,5.4-3.2,5.4-3.2l2.6,0.8c0,0,3.2,5.4,3.3,5.4l4.5-0.6c0.3,0,1.5-5.9,1.5-5.9l2.4-1.4c0,0,5.9,1.8,6.3,1.5l2.9-3.6
	c0.2-0.2-3.2-5.4-3.2-5.4l0.8-2.6c0,0,5.4-3,5.3-3.2l-0.8-4.5c0-0.3-6.2-1.8-6.2-1.8l-1.2-2.7c0,0,1.5-5.9,1.4-6.2l-3.6-2.9
	c-0.2-0.2-5.4,3.2-5.4,3.2l-2.6-0.8c0,0-3.2-5.4-3.3-5.4l-4.5,0.6c-0.3,0-1.5,5.9-1.5,5.9l-2.4,1.4c0,0-5.9-1.8-6.3-1.5l-2.9,3.6
	C162.2,158.5,165.7,163.6,165.7,163.6z M175.3,164.9c2.3-2.9,6.5-3.5,9.5-1.2s3.6,6.5,1.4,9.5c-2.3,2.9-6.5,3.5-9.5,1.2
	C173.6,172.2,173.2,167.9,175.3,164.9z"/>
<circle class="st13" cx="672.8" cy="87.3" r="10.2"/>
<g>
	<g>
		<g>
			<circle class="st25" cx="298.5" cy="192.7" r="6.5"/>
			<path class="st25" d="M302.6,187.6c-0.2-0.2-11.4-13.4-11.4-13.4l-4.7,5.6l10.2,12.9L302.6,187.6z"/>
		</g>
		<g>
			<g>
				<polygon class="st25" points="292.9,290.8 290.1,303.9 281.1,302.5 283.9,289.6 				"/>
				<polygon class="st25" points="333.7,289.6 333.8,303.1 324.7,303.7 324.7,290.5 				"/>
				<path class="st26" d="M291.3,301.8c-0.2-0.6-0.9-0.8-1.4-0.5c-0.9,0.6-2.6,1.5-5,1.2c-2.6-0.3-3.3-1.7-3.8-2.6
					c-0.2-0.5-0.8-0.8-1.2-0.6l-15.3,6.2c-0.9,0.3-1.7,1.1-2.1,2.1l0,0c-0.3,0.9,0.3,1.8,1.2,1.8l26.1,0.2c1.1,0,1.8-0.9,1.8-1.8
					l-0.3-5.1c0-0.2,0-0.2,0-0.3L291.3,301.8z"/>
				<path class="st26" d="M323.8,301.8c0.2-0.6,0.9-0.8,1.4-0.5c0.9,0.6,2.6,1.5,5,1.2c2.6-0.3,3.3-1.7,3.8-2.6
					c0.2-0.5,0.8-0.8,1.2-0.6l15.3,6.2c0.9,0.3,1.7,1.1,2.1,2.1l0,0c0.3,0.9-0.3,1.8-1.2,1.8l-26.1,0.2c-1.1,0-1.8-0.9-1.8-1.8
					l0.3-5.1c0-0.2,0-0.2,0-0.3L323.8,301.8z"/>
				<polygon class="st20" points="323.6,121.3 315.5,122 302.6,129.4 302.6,181.1 337,181.1 337,129.4 				"/>
				<path class="st25" d="M321.3,126.5h-2.3c-2.4,0-4.4-2-4.4-4.4v-8.7h11.1v8.7C325.7,124.6,323.8,126.5,321.3,126.5z"/>
				<path class="st27" d="M314.7,117.8c0,0,1.7,3.5,5.6,3.5c3.9,0,5.4-3.5,5.4-3.5H314.7z"/>
				<path class="st25" d="M320.3,119.3H320c-5.7,0-10.2-4.5-10.5-10.1l-0.2-5.6c-0.3-6,4.5-11,10.5-11h0.8c4.5,0,10.7,5,10.5,11
					l-0.2,5.6C330.7,114.8,326,119.3,320.3,119.3z"/>
				<circle class="st25" cx="309.3" cy="108.1" r="3.5"/>
				<circle class="st25" cx="331" cy="108.1" r="3.5"/>
				<polygon class="st26" points="302.6,180.8 281.1,294.7 293.4,294.5 324.8,181.1 				"/>
				<polygon class="st26" points="337,181.1 335.6,294.8 322.7,294.8 317.4,181.8 				"/>
				<path class="st20" d="M302.6,129.4L302.6,129.4c0,0-28.7,17.4-35.8,29.5c-1.4,2.4,0.5,5.4,2.9,6.6l0,0c2.7,1.4,6,0.5,7.5-2.1
					l26.6-15.5C303.8,147.7,302.6,134.5,302.6,129.4z"/>
				<path class="st28" d="M308.7,97.2l0.8,8.6h1.4l0.2-4.5c0,0,0.8-1.8,3.8-5.4c0,0,2,5.1,14.3,4.1l0.8,5.7l1.2-0.2l0.6-6.2
					c0.5-2.1,0.6-4.1,0.2-6.2c-0.8-4.2-4.2-6.6-14.1-3.6c-0.8,0.3,0.9,0.2,0,0C314.9,89.4,307.4,89.4,308.7,97.2z"/>
				<g>
					<path class="st29" d="M323.3,180.2l-2.9,29.8c-0.2,1.1,0.6,2.1,1.8,2.4l34.3,6.6c1.2,0.3,2.4-0.6,2.6-2l3.2-28.4
						c0.2-1.1-0.6-2.1-1.7-2.4l-34.6-8C324.7,177.9,323.5,178.8,323.3,180.2z"/>
					<path class="st30" d="M325.1,180.8l-2.9,29.8c-0.2,1.1,0.6,2.1,1.8,2.4l34.3,6.6c1.2,0.3,2.4-0.6,2.6-2l3.2-28.4
						c0.2-1.1-0.6-2.1-1.7-2.4l-34.6-8C326.6,178.5,325.3,179.4,325.1,180.8z"/>
				</g>
				<g>
					<circle class="st25" cx="341.2" cy="217.3" r="6.5"/>
					<path class="st25" d="M347.5,216.9c0-0.3-1.1-18.2-1.1-18.2l-6,1.1l0.8,15.2L347.5,216.9z"/>
				</g>
				<path class="st20" d="M337,129.4c0,0,9.2,6.6,9.8,15.9l2.9,21.9c0.2,1.4,0.3,2.6,0.2,3.9l-1.1,33.4h-12.6l-0.3-36.2L337,129.4z"
					/>
				<path class="st25" d="M316.4,121.3c-1.1,0.8-5.7,3.5-5.7,3.5s0.2,6.6,10.2,6.2c8.9-0.5,8.7-5.9,8.7-5.9l-6.2-3.6h-7.1V121.3z"/>
			</g>
			<path class="st31" d="M335.9,180.6"/>
		</g>
		<polygon class="st20" points="280.9,154.3 298.2,181.8 290.1,189.7 266.8,162.6 		"/>
	</g>
	<polyline class="st32" points="335.9,180.6 335.9,168.5 333.1,145.9 	"/>
</g>
<circle class="st13" cx="313.1" cy="18.8" r="7.4"/>
<circle class="st18" cx="601.7" cy="14.8" r="8.3"/>
</svg>
