<?xml version="1.0" encoding="utf-8"?>
<!-- Generator: Adobe Illustrator 24.1.0, SVG Export Plug-In . SVG Version: 6.00 Build 0)  -->
<svg version="1.1" id="Layer_1" xmlns="http://www.w3.org/2000/svg" xmlns:xlink="http://www.w3.org/1999/xlink" x="0px" y="0px"
	 viewBox="0 0 45 42" style="enable-background:new 0 0 45 42;" xml:space="preserve">
<style type="text/css">
	.st0{fill:#f0506e;stroke:#f0506e;stroke-width:0.1;}
</style>
<g id="payment_1_" transform="translate(-1.95 -1.95)">
	<path id="Path_5776" class="st0" d="M40,4.3H8.9c-1.7,0-3.1,1.4-3.1,3.1v22.4c0,1.7,1.4,3.1,3.1,3.1h11l-1.5,5h-2.6
		c-0.3,0-0.6,0.3-0.6,0.6c0,0,0,0,0,0c0,1.7,1.4,3.1,3.1,3.1h12.5c1.7,0,3.1-1.4,3.1-3.1c0-0.3-0.3-0.6-0.6-0.6c0,0,0,0,0,0h-2.6
		l-1.5-5h11c1.7,0,3.1-1.4,3.1-3.1V7.4C43.1,5.7,41.7,4.3,40,4.3z M8.9,5.5H40c1,0,1.9,0.8,1.9,1.9v19.3H7v-7.5h9.3v0.6
		c0,1,0.8,1.9,1.9,1.9h11.9c0.3,2.4,2.6,4,4.9,3.7c2.4-0.3,4-2.6,3.7-4.9c-0.3-1.9-1.8-3.4-3.7-3.7v-5.7c0-1-0.8-1.9-1.9-1.9H22.1
		l-4.9-2.4c-0.1-0.1-0.3-0.1-0.5,0L12.5,8H7V7.4C7,6.4,7.9,5.5,8.9,5.5z M30.1,20.5H18.2c-0.3,0-0.6-0.3-0.6-0.6v-0.6h2.2
		c1.2,0,2.2-1,2.2-2.2c0-0.3-0.1-0.6-0.2-0.9h12.1v0.7C31.9,17,30.4,18.5,30.1,20.5L30.1,20.5z M17.6,13.6h16.2v1.2H17.6L17.6,13.6z
		 M34.4,18c1.7,0,3.1,1.4,3.1,3.1c0,1.7-1.4,3.1-3.1,3.1c-1.7,0-3.1-1.4-3.1-3.1C31.3,19.4,32.7,18,34.4,18z M33.8,12.4H17.6v-1.3
		c0-0.3,0.3-0.6,0.6-0.6l0,0h14.9c0.3,0,0.6,0.3,0.6,0.6L33.8,12.4z M18.2,9.3c-1,0-1.9,0.8-1.9,1.9v3.7h-1.2v1.2h4.7
		c0.5,0,0.9,0.4,0.9,0.9c0,0.5-0.4,0.9-0.9,0.9H7V9.3h5.6c0.1,0,0.1,0,0.2,0L16.9,8l2.4,1.2L18.2,9.3z M30.7,40.4H18.2
		c-0.8,0-1.5-0.5-1.8-1.2h16C32.2,39.9,31.5,40.4,30.7,40.4z M29.2,37.9h-9.5l1.5-5h6.5L29.2,37.9z M40,31.7H8.9
		c-1,0-1.9-0.8-1.9-1.9v-1.9h34.9v1.9C41.9,30.8,41,31.7,40,31.7L40,31.7z"/>
	<path id="Path_5777" class="st0" d="M33.8,22.9c0.2,0,0.3-0.1,0.4-0.2l2.5-2.5l-0.9-0.9l-2,2L33,20.6l-0.9,0.9l1.2,1.2
		C33.5,22.9,33.6,22.9,33.8,22.9z"/>
	<path id="Path_5778" class="st0" d="M22.6,17.3h1.2v1.2h-1.2V17.3z"/>
	<path id="Path_5779" class="st0" d="M25.1,17.3h1.2v1.2h-1.2V17.3z"/>
	<path id="Path_5780" class="st0" d="M27.6,17.3h1.2v1.2h-1.2V17.3z"/>
</g>
</svg>
