<svg xmlns="http://www.w3.org/2000/svg" width="51.85" height="51.85" viewBox="0 0 51.85 51.85">
  <g id="Clock" transform="translate(-1.946 -1.946)">
    <path id="Path_7555" data-name="Path 7555" d="M15.19,10.384l1.275,2.208,1.494-.862L16.684,9.523a16.253,16.253,0,0,1,6.564-1.754v2.543h1.725V7.754a16.35,16.35,0,0,1,6.565,1.768L30.263,11.73l1.494.862,1.274-2.207a16.394,16.394,0,0,1,5.261,5.532l1.494-.862a18.1,18.1,0,1,0-24.73,24.731l.862-1.494a16.394,16.394,0,0,1-5.532-5.261l2.207-1.274-.862-1.494L9.522,31.539a16.35,16.35,0,0,1-1.768-6.566h2.558V23.248H7.769a16.253,16.253,0,0,1,1.754-6.564l2.207,1.274.862-1.494L10.384,15.19a16.506,16.506,0,0,1,4.805-4.805Z" transform="translate(-0.55 -0.55)" fill="#f0506e" stroke="#f0506e" stroke-width="0.1"/>
    <path id="Path_7556" data-name="Path 7556" d="M52.883,31.322h-3.25a14.57,14.57,0,0,0-1.05-2.538l2.3-2.3a.862.862,0,0,0,0-1.22L46,20.389a.883.883,0,0,0-1.132-.057A21.556,21.556,0,1,0,20.33,44.87a.854.854,0,0,0-.194.522.862.862,0,0,0,.253.611l4.879,4.879a.889.889,0,0,0,1.22,0l2.3-2.3a14.57,14.57,0,0,0,2.538,1.05v3.25a.862.862,0,0,0,.862.862h6.9a.862.862,0,0,0,.862-.862v-3.25a14.57,14.57,0,0,0,2.538-1.05l2.3,2.3a.862.862,0,0,0,1.22,0L50.881,46a.862.862,0,0,0,0-1.22l-2.3-2.3a14.57,14.57,0,0,0,1.05-2.538h3.25a.862.862,0,0,0,.862-.862v-6.9A.862.862,0,0,0,52.883,31.322ZM3.725,23.561A19.826,19.826,0,0,1,43.3,21.867l-.819.819a14.57,14.57,0,0,0-2.538-1.05v-3.25a.862.862,0,0,0-.862-.862h-6.9a.862.862,0,0,0-.862.862v3.25a14.57,14.57,0,0,0-2.538,1.05l-2.3-2.3a.862.862,0,0,0-1.22,0l-.844.843V11.487H22.7V22.7H16.661v1.725h4.571l-.845.844a.862.862,0,0,0,0,1.22l2.3,2.3a14.57,14.57,0,0,0-1.049,2.538h-3.25a.862.862,0,0,0-.862.862v6.9a.862.862,0,0,0,.862.862h3.25a14.57,14.57,0,0,0,1.05,2.538l-.819.819A19.858,19.858,0,0,1,3.725,23.561Zm48.3,14.661H48.982a.862.862,0,0,0-.836.647,12.819,12.819,0,0,1-1.38,3.326.862.862,0,0,0,.133,1.049l2.149,2.148-3.66,3.66L43.239,46.9a.862.862,0,0,0-1.049-.133,12.819,12.819,0,0,1-3.326,1.38.862.862,0,0,0-.647.836v3.036H33.047V48.982a.862.862,0,0,0-.647-.836,12.819,12.819,0,0,1-3.326-1.38.862.862,0,0,0-1.049.133l-2.148,2.149-3.66-3.66,2.149-2.148a.862.862,0,0,0,.133-1.049,12.819,12.819,0,0,1-1.38-3.326.862.862,0,0,0-.836-.647H19.248V33.047h3.039a.862.862,0,0,0,.836-.647,12.819,12.819,0,0,1,1.38-3.326.862.862,0,0,0-.133-1.049l-2.149-2.148,3.66-3.66,2.148,2.149a.862.862,0,0,0,1.049.133A12.819,12.819,0,0,1,32.4,23.12a.862.862,0,0,0,.647-.836V19.248h5.175v3.039a.862.862,0,0,0,.647.836A12.819,12.819,0,0,1,42.2,24.5a.862.862,0,0,0,1.049-.133l2.148-2.149,3.66,3.66L46.906,28.03a.862.862,0,0,0-.133,1.049,12.819,12.819,0,0,1,1.38,3.326.862.862,0,0,0,.836.647h3.032Z" transform="translate(0 0)" fill="#f0506e" stroke="#f0506e" stroke-width="0.1"/>
    <path id="Path_7557" data-name="Path 7557" d="M35.762,28a7.762,7.762,0,1,0,7.762,7.762A7.762,7.762,0,0,0,35.762,28Zm0,14.331a6.568,6.568,0,1,1,6.568-6.568A6.568,6.568,0,0,1,35.762,42.331Z" transform="translate(-0.128 -0.128)" fill="#f0506e" stroke="#f0506e" stroke-width="0.8"/>
  </g>
</svg>
