<?xml version="1.0" encoding="utf-8"?>
<!-- Generator: Adobe Illustrator 24.1.2, SVG Export Plug-In . SVG Version: 6.00 Build 0)  -->
<svg version="1.1" id="Layer_1" xmlns="http://www.w3.org/2000/svg" xmlns:xlink="http://www.w3.org/1999/xlink" x="0px" y="0px"
	 viewBox="0 0 184 165" style="enable-background:new 0 0 184 165;" xml:space="preserve">
<style type="text/css">
	.st0{opacity:0.25;fill:none;stroke:#707070;enable-background:new    ;}
	.st1{fill:#f0506e;enable-background:new    ;}
	.st2{fill:#fff;stroke:#F1F1F7;stroke-width:0.6;}
</style>
<g id="Group_5991" transform="translate(-785 -1065.796)">
	<line id="Line_129" class="st0" x1="968.5" y1="1068.6" x2="968.5" y2="1230.6"/>
	<g id="Group_4217">
		<g id="Group_4150" transform="translate(491 -43)">
			<path id="Path_6728" class="st1" d="M328.2,1150.8c7.1-7.3,17.6-16.4,54.7-8.2s45.8,17.6,49,30.9c3.3,13.3-10.2,29.5-22.9,37.7
				c-12.7,8.1-48.3,28.3-54.2,29.8c-5.9,1.5-22.3,4.5-31.7-27.7C313.9,1181.2,321.1,1158.1,328.2,1150.8z"/>
		</g>
		<g id="_050---Sales" transform="translate(839 1111)">
			<path id="Shape" class="st2" d="M36.9,67.9c2.5,0,4.6-2,4.6-4.5V4.7c0-2.5-2.1-4.5-4.6-4.5H4.6C2.1,0.1,0,2.1,0,4.7v58.7
				c0,2.5,2.1,4.5,4.6,4.5L36.9,67.9z M29.6,2.4l-1.5,1.5c-0.4,0.4-1,0.7-1.6,0.7H15.1c-0.6,0-1.2-0.3-1.7-0.7l-1.5-1.5H29.6z
				 M2.3,4.7c0-1.3,1-2.3,2.3-2.3h4.1l3,3.1c0.9,0.9,2.1,1.4,3.4,1.4h11.5c1.3,0,2.5-0.5,3.4-1.4l2.9-3.1h4.1c1.3,0,2.3,1,2.3,2.3
				c0,0,0,0,0,0v53.1c0,1.3-1,2.3-2.3,2.3c0,0,0,0,0,0H4.6c-1.3,0-2.3-1-2.3-2.3c0,0,0,0,0,0L2.3,4.7z M2.3,63.4v-1.8
				C3,62,3.8,62.2,4.6,62.2h32.3c0.8,0,1.6-0.2,2.3-0.6v1.8c0,1.3-1,2.3-2.3,2.3c0,0,0,0,0,0H4.6C3.4,65.6,2.3,64.6,2.3,63.4
				C2.3,63.4,2.3,63.4,2.3,63.4L2.3,63.4z"/>
		</g>
	</g>
</g>
</svg>
