<?xml version="1.0" encoding="utf-8"?>
<!-- Generator: Adobe Illustrator 24.1.2, SVG Export Plug-In . SVG Version: 6.00 Build 0)  -->
<svg version="1.1" id="Layer_1" xmlns="http://www.w3.org/2000/svg" xmlns:xlink="http://www.w3.org/1999/xlink" x="0px" y="0px"
	 viewBox="0 0 184 165" style="enable-background:new 0 0 184 165;" xml:space="preserve">
<style type="text/css">
	.st0{opacity:0.25;fill:none;stroke:#707070;enable-background:new    ;}
	.st1{fill:#f0506e;enable-background:new    ;}
	.st2{fill:#fff;stroke:#F1F1F7;stroke-width:0.5;}
</style>
<g id="Group_5990" transform="translate(-217 -1067.5)">
	<line id="Line_128" class="st0" x1="400.5" y1="1069" x2="400.5" y2="1231"/>
	<g id="Group_4199">
		<g id="Group_4149" transform="translate(-77 -41)">
			<path id="Path_6728" class="st1" d="M328.2,1152.2c7.1-7.3,17.6-16.4,54.7-8.2s45.8,17.6,49,30.9c3.3,13.3-10.2,29.5-22.9,37.7
				c-12.7,8.1-48.3,28.3-54.2,29.8c-5.9,1.5-22.3,4.5-31.7-27.7C313.9,1182.6,321.1,1159.4,328.2,1152.2z"/>
		</g>
		<path id="Union_33" class="st2" d="M278.4,1175.6c-1.8,0-3.2-1.4-3.2-3.2c0-1.8,1.4-3.2,3.2-3.2h2.1c3.3,0,5-2.1,5.3-6.4h-21.2
			c-2.3,0-4.2-1.9-4.2-4.2v-40.3c0-2.3,1.9-4.2,4.2-4.2h55.2c2.3,0,4.2,1.9,4.2,4.2v40.3c0,2.3-1.9,4.2-4.2,4.2h-21.2
			c0.2,4.2,2,6.4,5.3,6.4h2.1c1.8,0,3.2,1.4,3.2,3.2c0,1.8-1.4,3.2-3.2,3.2L278.4,1175.6z M277.3,1172.4c0,0.6,0.5,1.1,1.1,1.1H306
			c0.6,0,1.1-0.5,1.1-1.1c0-0.6-0.5-1.1-1.1-1.1l0,0h-27.6C277.8,1171.3,277.3,1171.8,277.3,1172.4
			C277.3,1172.4,277.3,1172.4,277.3,1172.4z M298.7,1169.2c-1.4-1.8-2.2-4.1-2.2-6.4h-8.5c0,2.3-0.8,4.6-2.2,6.4H298.7z
			 M262.5,1158.6c0,1.2,1,2.1,2.1,2.1l0,0h55.2c1.2,0,2.1-0.9,2.1-2.1c0,0,0,0,0,0v-4.2h-59.4V1158.6z M262.5,1118.3v33.9h59.4
			v-33.9c0-1.2-0.9-2.1-2.1-2.1c0,0,0,0,0,0h-55.2C263.4,1116.2,262.5,1117.1,262.5,1118.3C262.5,1118.3,262.5,1118.3,262.5,1118.3
			L262.5,1118.3z M289,1158.6c-0.6,0-1.1-0.5-1.1-1.1c0-0.6,0.5-1.1,1.1-1.1h6.4c0.6,0,1.1,0.5,1.1,1.1c0,0.6-0.5,1.1-1.1,1.1H289z
			 M265.7,1150.2c-0.6,0-1-0.4-1.1-0.9v-30c0-0.6,0.5-1,1.1-0.9h53c0.6,0,1,0.4,1.1,0.9v30c0,0.6-0.5,1-1.1,0.9H265.7z
			 M266.7,1148.3h50.9v-28.1h-50.9V1148.3z"/>
	</g>
</g>
</svg>
