<svg xmlns="http://www.w3.org/2000/svg" viewBox="0 0 710 214"><defs><style>.cls-1{fill:none;stroke:#999;stroke-miterlimit:10;}.cls-2{fill:#999;}.cls-3{fill:#a1bac4;}.cls-4{fill:#00a1e0;}.cls-5{fill:#4b6c7e;}.cls-6{fill:#71be71;}.cls-7{fill:#f2a24c;}.cls-8{fill:#fff;}</style></defs><title>Salesforce integration</title><g id="Layer_1" data-name="Layer 1"><line class="cls-1" x1="390.5" y1="143.57" x2="390.5" y2="180.93"/><circle class="cls-2" cx="390.5" cy="143.76" r="3.76"/><circle class="cls-2" cx="390.5" cy="180.74" r="3.76"/><line class="cls-1" x1="322.5" y1="143.57" x2="322.5" y2="180.93"/><circle class="cls-2" cx="322.5" cy="143.76" r="3.76"/><circle class="cls-2" cx="322.5" cy="180.74" r="3.76"/><line class="cls-1" x1="390.5" y1="33.57" x2="390.5" y2="70.93"/><circle class="cls-2" cx="390.5" cy="33.76" r="3.76"/><circle class="cls-2" cx="390.5" cy="70.74" r="3.76"/><line class="cls-1" x1="322.5" y1="33.57" x2="322.5" y2="70.93"/><circle class="cls-2" cx="322.5" cy="33.76" r="3.76"/><circle class="cls-2" cx="322.5" cy="70.74" r="3.76"/><line class="cls-1" x1="165.57" y1="81.25" x2="281.43" y2="81.25"/><circle class="cls-2" cx="165.76" cy="81.25" r="3.76"/><circle class="cls-2" cx="281.24" cy="81.25" r="3.76"/><line class="cls-1" x1="165.57" y1="131.82" x2="281.43" y2="131.82"/><circle class="cls-2" cx="165.76" cy="131.82" r="3.76"/><circle class="cls-2" cx="281.24" cy="131.82" r="3.76"/><line class="cls-1" x1="428.57" y1="81.25" x2="544.43" y2="81.25"/><circle class="cls-2" cx="428.76" cy="81.25" r="3.76"/><circle class="cls-2" cx="544.24" cy="81.25" r="3.76"/><line class="cls-1" x1="428.57" y1="131.82" x2="544.43" y2="131.82"/><circle class="cls-2" cx="428.76" cy="131.82" r="3.76"/><circle class="cls-2" cx="544.24" cy="131.82" r="3.76"/></g><g id="Layer_2" data-name="Layer 2"><rect class="cls-3" y="64.75" width="165" height="33" rx="5" ry="5"/><rect class="cls-4" x="282" y="70.5" width="146" height="72" rx="10.33" ry="10.33"/><rect class="cls-5" x="169" y="0.5" width="165" height="33" rx="5" ry="5"/><rect class="cls-6" x="380" y="0.5" width="165" height="33" rx="5" ry="5"/><rect class="cls-6" x="169" y="181.25" width="165" height="33" rx="5" ry="5"/><rect class="cls-5" x="380" y="181.25" width="165" height="33" rx="5" ry="5"/><rect class="cls-7" y="118.75" width="165" height="33" rx="5" ry="5"/><rect class="cls-7" x="545" y="64.75" width="165" height="33" rx="5" ry="5"/><rect class="cls-3" x="545" y="118.75" width="165" height="33" rx="5" ry="5"/><path class="cls-8" d="M296.94,111l1.2-1.59a5.31,5.31,0,0,0,1.62.82,6.35,6.35,0,0,0,1.83.25,3.28,3.28,0,0,0,1.9-.5,1.69,1.69,0,0,0,.72-1.49,1.8,1.8,0,0,0-.34-1.16,2.43,2.43,0,0,0-1-.7,15,15,0,0,0-1.77-.57,6.1,6.1,0,0,1-2.78-1.4,3.33,3.33,0,0,1-.95-2.5,3.4,3.4,0,0,1,.63-2.06,3.89,3.89,0,0,1,1.71-1.3,6.42,6.42,0,0,1,2.44-.44,7.39,7.39,0,0,1,4.38,1.34l-1.13,1.63a6.59,6.59,0,0,0-1.57-.73,5.63,5.63,0,0,0-1.62-.23,3.13,3.13,0,0,0-1.71.41,1.37,1.37,0,0,0-.64,1.23,1.43,1.43,0,0,0,.65,1.27,7.78,7.78,0,0,0,2.16.83,7.06,7.06,0,0,1,3,1.48,3.61,3.61,0,0,1,1.05,2.8,3.84,3.84,0,0,1-.69,2.32,4.07,4.07,0,0,1-1.86,1.4,7.11,7.11,0,0,1-2.61.46,7.71,7.71,0,0,1-2.54-.41A6.87,6.87,0,0,1,296.94,111Z"/><path class="cls-8" d="M316.5,109.25H311l-1.09,2.92h-2.62l5.2-13.53h2.58l5.18,13.53h-2.71Zm-4.84-1.91h4.19l-2.08-6.14Z"/><path class="cls-8" d="M324.24,110.09h5.85v2.08h-8.35V98.64h2.5Z"/><path class="cls-8" d="M340.24,100.65h-6v3.61h5.16v1.93H334.2v3.94h6.37v2H331.7V98.64h8.54Z"/><path class="cls-8" d="M341.52,111l1.2-1.59a5.31,5.31,0,0,0,1.62.82,6.35,6.35,0,0,0,1.83.25,3.28,3.28,0,0,0,1.9-.5,1.69,1.69,0,0,0,.72-1.49,1.8,1.8,0,0,0-.34-1.16,2.43,2.43,0,0,0-1-.7,15,15,0,0,0-1.77-.57,6.1,6.1,0,0,1-2.78-1.4,3.33,3.33,0,0,1-.95-2.5,3.4,3.4,0,0,1,.63-2.06,3.89,3.89,0,0,1,1.71-1.3,6.42,6.42,0,0,1,2.44-.44,7.39,7.39,0,0,1,4.38,1.34L350,101.28a6.59,6.59,0,0,0-1.57-.73,5.63,5.63,0,0,0-1.62-.23,3.13,3.13,0,0,0-1.71.41,1.37,1.37,0,0,0-.64,1.23,1.43,1.43,0,0,0,.65,1.27,7.78,7.78,0,0,0,2.16.83,7.06,7.06,0,0,1,3,1.48,3.61,3.61,0,0,1,1.05,2.8,3.84,3.84,0,0,1-.69,2.32,4.07,4.07,0,0,1-1.86,1.4,7.11,7.11,0,0,1-2.61.46,7.71,7.71,0,0,1-2.54-.41A6.88,6.88,0,0,1,341.52,111Z"/><path class="cls-8" d="M362.09,100.69h-6v3.77h5.26v2h-5.26v5.68h-2.5V98.64h8.54Z"/><path class="cls-8" d="M362.86,105.41a8.13,8.13,0,0,1,.82-3.74,5.9,5.9,0,0,1,2.38-2.5,8.24,8.24,0,0,1,7.45,0,5.88,5.88,0,0,1,2.39,2.5,8.91,8.91,0,0,1,0,7.48,5.88,5.88,0,0,1-2.39,2.5,8.24,8.24,0,0,1-7.45,0,5.9,5.9,0,0,1-2.38-2.5A8.14,8.14,0,0,1,362.86,105.41Zm11.3,0a5.55,5.55,0,0,0-1.1-3.63,4.66,4.66,0,0,0-6.54,0,6.55,6.55,0,0,0,0,7.26,4.66,4.66,0,0,0,6.54,0A5.55,5.55,0,0,0,374.16,105.41Z"/><path class="cls-8" d="M386.54,112.18l-2.68-4.59h-2.29v4.59h-2.5V98.64h4.74a5.58,5.58,0,0,1,3.69,1.18,4.11,4.11,0,0,1,1.41,3.35,3.89,3.89,0,0,1-2.73,3.92l3.23,5.08Zm-2.87-6.5a2.88,2.88,0,0,0,1.91-.62,2.75,2.75,0,0,0,0-3.79,3,3,0,0,0-1.93-.62h-2.08v5Z"/><path class="cls-8" d="M402.16,100l-1.41,1.61a4.82,4.82,0,0,0-1.49-.86,5.12,5.12,0,0,0-1.76-.31,3.89,3.89,0,0,0-3.27,1.35,5.73,5.73,0,0,0-1.05,3.62,5.67,5.67,0,0,0,1.05,3.58,3.82,3.82,0,0,0,3.21,1.35,4.66,4.66,0,0,0,1.87-.37,5.2,5.2,0,0,0,1.51-1l1.51,1.64a6.54,6.54,0,0,1-2.15,1.4,7.29,7.29,0,0,1-2.82.54,7.1,7.1,0,0,1-3.69-.91,5.82,5.82,0,0,1-2.31-2.52,9.22,9.22,0,0,1,0-7.46,5.76,5.76,0,0,1,2.33-2.5,7.28,7.28,0,0,1,3.7-.89,7.76,7.76,0,0,1,2.68.46A5.73,5.73,0,0,1,402.16,100Z"/><path class="cls-8" d="M412.77,100.65h-6v3.61h5.16v1.93h-5.16v3.94h6.37v2h-8.87V98.64h8.54Z"/></g><g id="Layer_4" data-name="Layer 4"><path class="cls-8" d="M244.58,23.11h-6.86V11h6.86v1.68h-4.88V16h4.57v1.66h-4.57v3.81h4.88Z"/><path class="cls-8" d="M249.07,18.27v4.85h-2V11h3.43a5.63,5.63,0,0,1,3.48.88,3.16,3.16,0,0,1,1.13,2.66,3.32,3.32,0,0,1-2.36,3.23l3.43,5.37h-2.26L251,18.27Zm0-1.64h1.38a3.15,3.15,0,0,0,2-.51,1.87,1.87,0,0,0,.62-1.53,1.64,1.64,0,0,0-.67-1.48,3.69,3.69,0,0,0-2-.45h-1.31Z"/><path class="cls-8" d="M266.07,14.65a3.54,3.54,0,0,1-1.25,2.91,5.48,5.48,0,0,1-3.54,1H260v4.54h-2V11h3.49a5.29,5.29,0,0,1,3.41.93A3.34,3.34,0,0,1,266.07,14.65ZM260,16.9h1.05a3.78,3.78,0,0,0,2.24-.53,1.93,1.93,0,0,0,.71-1.66,1.88,1.88,0,0,0-.64-1.56,3.16,3.16,0,0,0-2-.51H260Z"/><path class="cls-8" d="M416.07,23.11l-1.21-3.37h-4.64L409,23.11h-2.09l4.54-12.19h2.16l4.54,12.19ZM414.33,18l-1.14-3.3c-.08-.22-.2-.57-.35-1s-.25-.82-.3-1a18.37,18.37,0,0,1-.66,2.23L410.8,18Z"/><path class="cls-8" d="M424.66,12.51A3.27,3.27,0,0,0,422,13.72a5.18,5.18,0,0,0-1,3.35,5.21,5.21,0,0,0,.94,3.38,3.33,3.33,0,0,0,2.73,1.15,7.19,7.19,0,0,0,1.49-.15q.72-.15,1.5-.39v1.7a9.1,9.1,0,0,1-3.24.54,5.17,5.17,0,0,1-4.09-1.61A6.75,6.75,0,0,1,418.9,17a7.48,7.48,0,0,1,.69-3.31,5,5,0,0,1,2-2.17,6.06,6.06,0,0,1,3.08-.76,7.64,7.64,0,0,1,3.44.78l-.71,1.65a10.64,10.64,0,0,0-1.3-.51A4.67,4.67,0,0,0,424.66,12.51Z"/><path class="cls-8" d="M435,12.51a3.27,3.27,0,0,0-2.69,1.21,5.18,5.18,0,0,0-1,3.35,5.22,5.22,0,0,0,.94,3.38A3.33,3.33,0,0,0,435,21.59a7.19,7.19,0,0,0,1.49-.15q.72-.15,1.5-.39v1.7a9.11,9.11,0,0,1-3.24.54,5.17,5.17,0,0,1-4.09-1.61A6.76,6.76,0,0,1,429.24,17a7.45,7.45,0,0,1,.69-3.31,5,5,0,0,1,2-2.17A6.07,6.07,0,0,1,435,10.8a7.64,7.64,0,0,1,3.44.78l-.71,1.65a10.69,10.69,0,0,0-1.3-.51A4.69,4.69,0,0,0,435,12.51Z"/><path class="cls-8" d="M450.94,17a6.64,6.64,0,0,1-1.48,4.61,6.23,6.23,0,0,1-8.42,0A6.68,6.68,0,0,1,439.57,17,6.57,6.57,0,0,1,441,12.4a5.46,5.46,0,0,1,4.23-1.61,5.35,5.35,0,0,1,4.18,1.64A6.63,6.63,0,0,1,450.94,17Zm-9.26,0a5.44,5.44,0,0,0,.91,3.4,3.68,3.68,0,0,0,5.35,0,5.45,5.45,0,0,0,.9-3.41,5.46,5.46,0,0,0-.89-3.39,3.16,3.16,0,0,0-2.66-1.15,3.22,3.22,0,0,0-2.69,1.15A5.39,5.39,0,0,0,441.67,17Z"/><path class="cls-8" d="M463,11v7.85a4.66,4.66,0,0,1-.58,2.35,3.85,3.85,0,0,1-1.67,1.55,5.79,5.79,0,0,1-2.61.54,4.88,4.88,0,0,1-3.51-1.2,4.33,4.33,0,0,1-1.25-3.29V11h2v7.68a3.07,3.07,0,0,0,.7,2.22,2.87,2.87,0,0,0,2.14.71q2.81,0,2.81-2.95V11Z"/><path class="cls-8" d="M476.11,23.11h-2.43l-6-9.67h-.07l0,.54q.12,1.54.12,2.82v6.31H466V11h2.41l6,9.62h0q0-.19-.07-1.39t0-1.87V11h1.82Z"/><path class="cls-8" d="M483.55,23.11h-2V12.68H478V11h9.12v1.7h-3.57Z"/><path class="cls-8" d="M489,23.11V11h2V23.11Z"/><path class="cls-8" d="M504.2,23.11h-2.43l-6-9.67h-.07l0,.54q.12,1.54.12,2.82v6.31h-1.8V11h2.41l6,9.62h0q0-.19-.07-1.39t0-1.87V11h1.82Z"/><path class="cls-8" d="M512.29,16.53h4.47v6.09a13,13,0,0,1-2.1.51,14.91,14.91,0,0,1-2.18.15,5.47,5.47,0,0,1-4.25-1.63,6.57,6.57,0,0,1-1.49-4.6,6.14,6.14,0,0,1,1.68-4.59,6.34,6.34,0,0,1,4.64-1.66,9,9,0,0,1,3.6.73l-.7,1.65a7,7,0,0,0-3-.68,4,4,0,0,0-3.07,1.22,4.73,4.73,0,0,0-1.13,3.34,5,5,0,0,0,1,3.38,3.68,3.68,0,0,0,2.93,1.16,9.6,9.6,0,0,0,2.06-.24V18.23h-2.52Z"/><path class="cls-8" d="M207.81,205.11h-6.86V193h6.86v1.68h-4.88V198h4.57v1.66h-4.57v3.81h4.88Z"/><path class="cls-8" d="M215.4,194.51a3.27,3.27,0,0,0-2.69,1.21,6.36,6.36,0,0,0,0,6.72,3.33,3.33,0,0,0,2.73,1.15,7.19,7.19,0,0,0,1.49-.15q.72-.15,1.5-.39v1.7a9.1,9.1,0,0,1-3.24.54,5.17,5.17,0,0,1-4.09-1.61,6.76,6.76,0,0,1-1.43-4.62,7.47,7.47,0,0,1,.69-3.31,5,5,0,0,1,2-2.17,6.07,6.07,0,0,1,3.08-.76,7.64,7.64,0,0,1,3.44.78l-.71,1.65a10.67,10.67,0,0,0-1.3-.51A4.68,4.68,0,0,0,215.4,194.51Z"/><path class="cls-8" d="M231.33,199a6.64,6.64,0,0,1-1.48,4.61,6.23,6.23,0,0,1-8.42,0A6.68,6.68,0,0,1,220,199a6.57,6.57,0,0,1,1.48-4.62,5.46,5.46,0,0,1,4.23-1.61,5.35,5.35,0,0,1,4.18,1.64A6.63,6.63,0,0,1,231.33,199Zm-9.26,0a5.44,5.44,0,0,0,.9,3.4,3.68,3.68,0,0,0,5.35,0,6.89,6.89,0,0,0,0-6.8,3.16,3.16,0,0,0-2.66-1.15,3.22,3.22,0,0,0-2.69,1.15A5.39,5.39,0,0,0,222.07,199Z"/><path class="cls-8" d="M239.11,205.11,235.59,195h-.07q.14,2.26.14,4.23v5.9h-1.8V193h2.8l3.37,9.65h0l3.47-9.65h2.81v12.14h-1.91v-6q0-.9,0-2.36t.08-1.76h-.07l-3.64,10.12Z"/><path class="cls-8" d="M254.7,205.11,251.18,195h-.07q.14,2.26.14,4.23v5.9h-1.8V193h2.8l3.37,9.65h0l3.47-9.65H262v12.14H260v-6q0-.9,0-2.36t.08-1.76h-.07l-3.64,10.12Z"/><path class="cls-8" d="M271.92,205.11h-6.86V193h6.86v1.68H267V198h4.57v1.66H267v3.81h4.88Z"/><path class="cls-8" d="M276.41,200.27v4.85h-2V193h3.43a5.63,5.63,0,0,1,3.48.88,3.16,3.16,0,0,1,1.13,2.66,3.32,3.32,0,0,1-2.36,3.23l3.43,5.37h-2.26l-2.91-4.85Zm0-1.64h1.38a3.15,3.15,0,0,0,2-.51,1.87,1.87,0,0,0,.62-1.53,1.64,1.64,0,0,0-.67-1.48,3.69,3.69,0,0,0-2-.45h-1.31Z"/><path class="cls-8" d="M290.26,194.51a3.27,3.27,0,0,0-2.69,1.21,6.36,6.36,0,0,0,0,6.72,3.33,3.33,0,0,0,2.73,1.15,7.19,7.19,0,0,0,1.49-.15q.72-.15,1.5-.39v1.7a9.1,9.1,0,0,1-3.24.54,5.17,5.17,0,0,1-4.09-1.61A6.76,6.76,0,0,1,284.5,199a7.47,7.47,0,0,1,.69-3.31,5,5,0,0,1,2-2.17,6.07,6.07,0,0,1,3.08-.76,7.64,7.64,0,0,1,3.44.78l-.71,1.65a10.67,10.67,0,0,0-1.3-.51A4.68,4.68,0,0,0,290.26,194.51Z"/><path class="cls-8" d="M302.63,205.11h-6.86V193h6.86v1.68h-4.88V198h4.57v1.66h-4.57v3.81h4.88Z"/><path class="cls-8" d="M456.17,194.51a3.27,3.27,0,0,0-2.69,1.21,6.36,6.36,0,0,0,0,6.72,3.33,3.33,0,0,0,2.73,1.15,7.19,7.19,0,0,0,1.49-.15q.72-.15,1.5-.39v1.7a9.11,9.11,0,0,1-3.24.54,5.17,5.17,0,0,1-4.09-1.61A6.76,6.76,0,0,1,450.4,199a7.45,7.45,0,0,1,.69-3.31,5,5,0,0,1,2-2.17,6.07,6.07,0,0,1,3.08-.76,7.64,7.64,0,0,1,3.44.78l-.71,1.65a10.69,10.69,0,0,0-1.3-.51A4.69,4.69,0,0,0,456.17,194.51Z"/><path class="cls-8" d="M466.55,205.11h-2V194.68H461V193h9.12v1.7h-3.57Z"/><path class="cls-8" d="M472,205.11V193h2v12.14Z"/><path class="cls-8" d="M584.64,87.11,581.12,77h-.07q.14,2.26.14,4.23v5.9h-1.8V75h2.8l3.37,9.65h0L589.08,75h2.81V87.11H590v-6q0-.9,0-2.36t.08-1.76H590l-3.64,10.12Z"/><path class="cls-8" d="M602.79,87.11l-1.21-3.37h-4.64l-1.19,3.37h-2.09l4.54-12.19h2.16l4.54,12.19ZM601.05,82l-1.14-3.3c-.08-.22-.2-.57-.35-1s-.25-.82-.3-1a18.37,18.37,0,0,1-.66,2.23L597.52,82Z"/><path class="cls-8" d="M608.66,82.27v4.85h-2V75h3.43a5.63,5.63,0,0,1,3.48.88,3.16,3.16,0,0,1,1.13,2.66,3.32,3.32,0,0,1-2.36,3.23l3.43,5.37h-2.26l-2.91-4.85Zm0-1.64H610a3.14,3.14,0,0,0,2-.51,1.86,1.86,0,0,0,.62-1.53A1.65,1.65,0,0,0,612,77.1a3.69,3.69,0,0,0-2-.45h-1.31Z"/><path class="cls-8" d="M626.89,87.11h-2.3l-3.81-5.5-1.17,1v4.54h-2V75h2v5.79q.81-1,1.62-1.92L624.51,75h2.26q-3.18,3.74-4.56,5.32Z"/><path class="cls-8" d="M635.53,87.11h-6.87V75h6.87v1.68h-4.88V80h4.57v1.66h-4.57v3.81h4.88Z"/><path class="cls-8" d="M642.69,87.11h-2V76.68h-3.57V75h9.12v1.7h-3.57Z"/><path class="cls-8" d="M648.16,87.11V75h2V87.11Z"/><path class="cls-8" d="M663.34,87.11h-2.43l-6-9.67h-.07l0,.54q.12,1.54.12,2.82v6.31h-1.8V75h2.41l6,9.62h0q0-.19-.07-1.39t0-1.87V75h1.82Z"/><path class="cls-8" d="M671.43,80.53h4.47v6.09a13,13,0,0,1-2.1.51,14.91,14.91,0,0,1-2.18.15,5.47,5.47,0,0,1-4.25-1.63,6.57,6.57,0,0,1-1.49-4.6,6.14,6.14,0,0,1,1.68-4.59,6.34,6.34,0,0,1,4.64-1.66,9,9,0,0,1,3.6.73l-.7,1.65a7,7,0,0,0-3-.68,4,4,0,0,0-3.07,1.22,4.73,4.73,0,0,0-1.13,3.34,5,5,0,0,0,1,3.38,3.68,3.68,0,0,0,2.93,1.16,9.6,9.6,0,0,0,2.06-.24V82.23h-2.52Z"/><path class="cls-8" d="M577.25,138.82a3.05,3.05,0,0,1-1.17,2.54,5.09,5.09,0,0,1-3.23.92,7.7,7.7,0,0,1-3.37-.64v-1.88a9.17,9.17,0,0,0,1.76.61,7.48,7.48,0,0,0,1.74.22,2.77,2.77,0,0,0,1.74-.45,1.46,1.46,0,0,0,.56-1.2,1.51,1.51,0,0,0-.51-1.15,7.76,7.76,0,0,0-2.12-1.12,5.62,5.62,0,0,1-2.34-1.54,3.25,3.25,0,0,1-.68-2.08,2.91,2.91,0,0,1,1.08-2.39,4.48,4.48,0,0,1,2.9-.87,8.51,8.51,0,0,1,3.47.76l-.63,1.62a7.58,7.58,0,0,0-2.89-.68,2.22,2.22,0,0,0-1.46.42,1.38,1.38,0,0,0-.5,1.11,1.56,1.56,0,0,0,.2.81,2,2,0,0,0,.66.63,11.07,11.07,0,0,0,1.64.79,9,9,0,0,1,2,1,3.05,3.05,0,0,1,.91,1.09A3.28,3.28,0,0,1,577.25,138.82Z"/><path class="cls-8" d="M590.37,136a6.64,6.64,0,0,1-1.48,4.61,6.23,6.23,0,0,1-8.42,0A6.68,6.68,0,0,1,579,136a6.57,6.57,0,0,1,1.48-4.62,5.46,5.46,0,0,1,4.23-1.61,5.35,5.35,0,0,1,4.18,1.64A6.63,6.63,0,0,1,590.37,136Zm-9.26,0a5.44,5.44,0,0,0,.9,3.4,3.68,3.68,0,0,0,5.35,0,6.9,6.9,0,0,0,0-6.8,3.16,3.16,0,0,0-2.66-1.15,3.22,3.22,0,0,0-2.69,1.15A5.39,5.39,0,0,0,581.11,136Z"/><path class="cls-8" d="M598.11,131.51a3.27,3.27,0,0,0-2.69,1.21,6.37,6.37,0,0,0,0,6.72,3.33,3.33,0,0,0,2.73,1.15,7.17,7.17,0,0,0,1.49-.15q.72-.15,1.5-.39v1.7a9.1,9.1,0,0,1-3.24.54,5.17,5.17,0,0,1-4.09-1.61,6.75,6.75,0,0,1-1.43-4.62,7.47,7.47,0,0,1,.69-3.31,4.94,4.94,0,0,1,2-2.17,6.07,6.07,0,0,1,3.08-.76,7.64,7.64,0,0,1,3.44.78l-.71,1.65a10.71,10.71,0,0,0-1.3-.51A4.68,4.68,0,0,0,598.11,131.51Z"/><path class="cls-8" d="M603.61,142.11V130h2v12.14Z"/><path class="cls-8" d="M616.49,142.11l-1.21-3.37h-4.64l-1.19,3.37h-2.09l4.54-12.19h2.16l4.54,12.19ZM614.76,137l-1.14-3.3q-.12-.33-.34-1t-.3-1a18.93,18.93,0,0,1-.66,2.23l-1.1,3.16Z"/><path class="cls-8" d="M620.38,142.11V130h2v10.43h5.14v1.7Z"/><path class="cls-8" d="M639.25,142.11,635.73,132h-.07q.14,2.26.14,4.23v5.9H634V130h2.8l3.37,9.65h0l3.47-9.65h2.81v12.14h-1.91v-6q0-.9,0-2.36t.08-1.76h-.07L641,142.11Z"/><path class="cls-8" d="M656.46,142.11H649.6V130h6.86v1.68h-4.88V135h4.57v1.66h-4.57v3.81h4.88Z"/><path class="cls-8" d="M668.84,135.93a6,6,0,0,1-1.67,4.59,6.7,6.7,0,0,1-4.81,1.59H659V130h3.75a6.21,6.21,0,0,1,4.51,1.56A5.83,5.83,0,0,1,668.84,135.93Zm-2.09.07q0-4.36-4.08-4.36H661v8.81h1.41Q666.75,140.45,666.75,136Z"/><path class="cls-8" d="M671.36,142.11V130h2v12.14Z"/><path class="cls-8" d="M684.24,142.11,683,138.74h-4.64l-1.19,3.37h-2.09l4.54-12.19h2.16l4.54,12.19ZM682.51,137l-1.14-3.3q-.12-.33-.34-1t-.3-1a18.56,18.56,0,0,1-.66,2.23L679,137Z"/><path class="cls-8" d="M64.05,87.11V75h2V87.11Z"/><path class="cls-8" d="M73.48,87.11h-2V76.68H67.93V75H77v1.7H73.48Z"/><path class="cls-8" d="M86.16,83.82A3.05,3.05,0,0,1,85,86.36a5.09,5.09,0,0,1-3.23.92,7.7,7.7,0,0,1-3.37-.64V84.76a9.15,9.15,0,0,0,1.76.61,7.49,7.49,0,0,0,1.74.22,2.77,2.77,0,0,0,1.74-.45A1.46,1.46,0,0,0,84.2,84a1.51,1.51,0,0,0-.51-1.15,7.75,7.75,0,0,0-2.12-1.12,5.62,5.62,0,0,1-2.34-1.54,3.25,3.25,0,0,1-.68-2.08,2.91,2.91,0,0,1,1.08-2.39,4.48,4.48,0,0,1,2.9-.87,8.51,8.51,0,0,1,3.47.76l-.63,1.62a7.58,7.58,0,0,0-2.89-.68,2.22,2.22,0,0,0-1.46.42A1.38,1.38,0,0,0,80.5,78a1.56,1.56,0,0,0,.2.81,2,2,0,0,0,.66.63,11.09,11.09,0,0,0,1.64.79,9,9,0,0,1,2,1,3.05,3.05,0,0,1,.91,1.09A3.27,3.27,0,0,1,86.16,83.82Z"/><path class="cls-8" d="M93.71,87.11,90.19,77h-.07q.14,2.26.14,4.23v5.9h-1.8V75h2.8l3.37,9.65h0L98.15,75H101V87.11H99v-6q0-.9,0-2.36T99.17,77H99.1L95.46,87.11Z"/><path class="cls-8" d="M65.5,142.11H58.63V130H65.5v1.68H60.62V135h4.57v1.66H60.62v3.81H65.5Z"/><path class="cls-8" d="M73.25,142.11,69.73,132h-.07q.14,2.26.14,4.23v5.9H68V130h2.8l3.37,9.65h0L77.69,130H80.5v12.14H78.59v-6q0-.9,0-2.36t.08-1.76h-.07L75,142.11Z"/><path class="cls-8" d="M91.4,142.11l-1.21-3.37H85.54l-1.19,3.37H82.26l4.54-12.19H89l4.54,12.19ZM89.66,137l-1.14-3.3q-.12-.33-.34-1t-.3-1a18.72,18.72,0,0,1-.66,2.23L86.13,137Z"/><path class="cls-8" d="M95.28,142.11V130h2v12.14Z"/><path class="cls-8" d="M100.36,142.11V130h2v10.43h5.14v1.7Z"/></g></svg>